<svg width="40" height="40" viewBox="0 0 40 40" fill="none" xmlns="http://www.w3.org/2000/svg">
  <path d="M20 35.8l-2.4-2.2C8.9 25.5 3 20.1 3 13.5 3 8.1 7.2 3.9 12.6 3.9c3.1 0 6 1.4 7.4 3.6 1.4-2.2 4.3-3.6 7.4-3.6 5.4 0 9.6 4.2 9.6 9.6 0 6.6-5.9 12-14.6 20.1l-2.4 2.2z" fill="#ff2e63"/>
  <path d="M12.6 5.9c-4.2 0-7.6 3.4-7.6 7.6 0 5.6 5.1 10.4 12.9 17.5l2.1 2 2.1-2C29.9 23.9 35 19.1 35 13.5c0-4.2-3.4-7.6-7.6-7.6-2.8 0-5.5 1.5-6.8 3.9L20 11.2l-.6-1.4C18.1 7.4 15.4 5.9 12.6 5.9z" fill="#ff5e83"/>
</svg>
